<svg xmlns="http://www.w3.org/2000/svg" version="1.1" xmlns:xlink="http://www.w3.org/1999/xlink" xmlns:svgjs="http://svgjs.dev/svgjs" width="1457" height="564" preserveAspectRatio="none" viewBox="0 0 1457 564"><g mask="url(&quot;#SvgjsMask1037&quot;)" fill="none"><rect width="1457" height="564" x="0" y="0" fill="rgba(169, 29, 58, 1)"></rect><path d="M-92.71 322.58C67.22 326.28 194.84 544.9 506.08 548.18 817.31 551.46 952.44 662.41 1104.86 662.93" stroke="rgba(254, 254, 254, 0.17)" stroke-width="2"></path><path d="M-189.52 282.34C-71.63 282.54 43.61 352.84 276.75 352.84 509.88 352.84 496.39 277.84 743.02 282.34 989.65 286.84 1058.93 650.2 1209.29 675.19" stroke="rgba(254, 254, 254, 0.17)" stroke-width="2"></path><path d="M-57.02 155.82C97.69 157.45 219.13 317.04 538.26 325.02 857.39 333 967.92 609.67 1133.54 617.42" stroke="rgba(254, 254, 254, 0.17)" stroke-width="2"></path><path d="M-183.14 439.76C-6.17 438.96 243.18 291.67 509.41 293.12 775.64 294.57 731.72 639.47 855.68 674.15" stroke="rgba(254, 254, 254, 0.17)" stroke-width="2"></path><path d="M-86.13 117.32C31.39 117.52 146.25 187.82 378.64 187.82 611.02 187.82 582.75 103.8 843.41 117.32 1104.07 130.84 1137.19 609.45 1308.18 663.17" stroke="rgba(254, 254, 254, 0.17)" stroke-width="2"></path></g><defs><mask id="SvgjsMask1037"><rect width="1457" height="564" fill="#ffffff"></rect></mask></defs></svg>