<svg xmlns="http://www.w3.org/2000/svg" version="1.1" xmlns:xlink="http://www.w3.org/1999/xlink" xmlns:svgjs="http://svgjs.dev/svgjs" width="1457" height="564" preserveAspectRatio="none" viewBox="0 0 1457 564"><g mask="url(&quot;#SvgjsMask1837&quot;)" fill="none"><rect width="1457" height="564" x="0" y="0" fill="url(&quot;#SvgjsLinearGradient1838&quot;)"></rect><path d="M-155.74 528.86C-19.7 523.21 88.66 297.34 337.35 297.62 586.04 297.9 678.72 640.52 830.44 659.2" stroke="rgba(169, 29, 58, 0.33)" stroke-width="2"></path><path d="M-36.5 403.35C150.75 402.01 324.15 222.52 690.46 222.87 1056.78 223.22 1214.6 575.36 1417.43 585.22" stroke="rgba(169, 29, 58, 0.33)" stroke-width="2"></path><path d="M-79.93 417.12C39.8 417.31 156.93 487.62 393.78 487.62 630.64 487.62 626.17 416.26 867.5 417.12 1108.82 417.98 1206.91 664.52 1341.21 672.48" stroke="rgba(169, 29, 58, 0.33)" stroke-width="2"></path><path d="M-201.48 204.41C-25.6 204.9 126.67 322.74 491.02 328.49 855.37 334.24 991.91 650.3 1183.52 658.6" stroke="rgba(169, 29, 58, 0.33)" stroke-width="2"></path><path d="M-206.48 436.77C-39.03 435.08 114.34 256.11 438.58 256.29 762.83 256.47 904.52 561.72 1083.65 569.88" stroke="rgba(169, 29, 58, 0.33)" stroke-width="2"></path></g><defs><mask id="SvgjsMask1837"><rect width="1457" height="564" fill="#ffffff"></rect></mask><linearGradient x1="15.32%" y1="-39.58%" x2="84.68%" y2="139.58%" gradientUnits="userSpaceOnUse" id="SvgjsLinearGradient1838"><stop stop-color="rgba(74, 0, 15, 1)" offset="0"></stop><stop stop-color="rgba(169, 29, 58, 1)" offset="1"></stop></linearGradient></defs></svg>