<svg xmlns="http://www.w3.org/2000/svg" version="1.1" xmlns:xlink="http://www.w3.org/1999/xlink" xmlns:svgjs="http://svgjs.dev/svgjs" width="1441" height="560" preserveAspectRatio="none" viewBox="0 0 1441 560"><g clip-path="url(&quot;#SvgjsClipPath1002&quot;)" fill="none"><rect width="1441" height="560" x="0" y="0" fill="rgba(169, 29, 58, 1)"></rect><circle r="93.335" cx="-60.59" cy="-51.35" stroke="#ffffff" stroke-opacity="0.08" stroke-width="2"></circle><circle r="93.335" cx="398.49" cy="444.18" stroke="#ffffff" stroke-opacity="0.08" stroke-width="2"></circle><circle r="93.335" cx="753.72" cy="727.81" stroke="#ffffff" stroke-opacity="0.08" stroke-width="2"></circle><circle r="107.31" cx="1223.42" cy="434.18" stroke="#ffffff" stroke-opacity="0.08" stroke-width="2"></circle><circle r="176.075" cx="99.56" cy="492.98" stroke="#ffffff" stroke-opacity="0.08" stroke-width="2"></circle><circle r="159.47" cx="55.3" cy="418.78" stroke="#ffffff" stroke-opacity="0.08" stroke-width="2"></circle><circle r="91.065" cx="732.21" cy="488.13" stroke="#ffffff" stroke-opacity="0.08" stroke-width="2"></circle><circle r="146.085" cx="274.12" cy="279.76" stroke="#ffffff" stroke-opacity="0.08" stroke-width="2"></circle><circle r="59" cx="797.46" cy="104.29" stroke="#ffffff" stroke-opacity="0.08" stroke-width="2"></circle><circle r="142.18" cx="598.15" cy="397.33" stroke="#ffffff" stroke-opacity="0.08" stroke-width="2"></circle><circle r="78.735" cx="251.96" cy="196.85" stroke="#ffffff" stroke-opacity="0.08" stroke-width="2"></circle><circle r="132.585" cx="1257.6" cy="489.8" stroke="#ffffff" stroke-opacity="0.08" stroke-width="2"></circle><circle r="49.085" cx="995.07" cy="410.23" stroke="#ffffff" stroke-opacity="0.08" stroke-width="2"></circle><circle r="156.045" cx="1020.04" cy="199.14" stroke="#ffffff" stroke-opacity="0.08" stroke-width="2"></circle><circle r="67.64" cx="1396.83" cy="170.23" stroke="#ffffff" stroke-opacity="0.08" stroke-width="2"></circle><circle r="110.61" cx="1068.68" cy="387.72" stroke="#ffffff" stroke-opacity="0.08" stroke-width="2"></circle><circle r="130.055" cx="1046.17" cy="349.46" stroke="#ffffff" stroke-opacity="0.08" stroke-width="2"></circle><circle r="130.29" cx="698.25" cy="148.21" stroke="#ffffff" stroke-opacity="0.08" stroke-width="2"></circle><circle r="123.69" cx="986.73" cy="103.77" stroke="#ffffff" stroke-opacity="0.08" stroke-width="2"></circle><circle r="66.715" cx="846.25" cy="233.44" stroke="#ffffff" stroke-opacity="0.08" stroke-width="2"></circle><circle r="182.94" cx="1327.08" cy="75.13" stroke="#ffffff" stroke-opacity="0.08" stroke-width="2"></circle><circle r="52.785" cx="346.44" cy="85.22" stroke="#ffffff" stroke-opacity="0.08" stroke-width="2"></circle></g><defs><clipPath id="SvgjsClipPath1002"><rect width="1441" height="560" x="0" y="0"></rect></clipPath></defs></svg>